<?xml version="1.0" encoding="UTF-8" standalone="no"?>
<!-- Created with Inkscape (http://www.inkscape.org/) -->

<svg
   xmlns:dc="http://purl.org/dc/elements/1.1/"
   xmlns:cc="http://creativecommons.org/ns#"
   xmlns:rdf="http://www.w3.org/1999/02/22-rdf-syntax-ns#"
   xmlns:svg="http://www.w3.org/2000/svg"
   xmlns="http://www.w3.org/2000/svg"
   xmlns:sodipodi="http://sodipodi.sourceforge.net/DTD/sodipodi-0.dtd"
   xmlns:inkscape="http://www.inkscape.org/namespaces/inkscape"
   width="341.8161pt"
   height="114.46033pt"
   viewBox="0 0 120.58513 40.379061"
   version="1.1"
   id="svg79"
   sodipodi:docname="bargas.svg"
   inkscape:version="0.92.1 r15371"
   inkscape:export-filename="/home/kn/bargas.svg.png"
   inkscape:export-xdpi="96"
   inkscape:export-ydpi="96">
  <defs
     id="defs73" />
  <sodipodi:namedview
     id="base"
     pagecolor="#ffffff"
     bordercolor="#666666"
     borderopacity="1.0"
     inkscape:pageopacity="0.0"
     inkscape:pageshadow="2"
     inkscape:zoom="1.7421649"
     inkscape:cx="313.88513"
     inkscape:cy="52.198949"
     inkscape:document-units="mm"
     inkscape:current-layer="layer1"
     showgrid="true"
     units="pt"
     inkscape:pagecheckerboard="true"
     showborder="false"
     inkscape:window-width="1366"
     inkscape:window-height="706"
     inkscape:window-x="0"
     inkscape:window-y="34"
     inkscape:window-maximized="1"
     inkscape:snap-nodes="false"
     inkscape:snap-others="false"
     inkscape:snap-bbox="true"
     inkscape:bbox-paths="true"
     inkscape:bbox-nodes="true"
     inkscape:snap-bbox-edge-midpoints="true"
     inkscape:snap-bbox-midpoints="true"
     fit-margin-top="0"
     fit-margin-left="0"
     fit-margin-right="0"
     fit-margin-bottom="0">
    <inkscape:grid
       type="xygrid"
       id="grid81"
       units="pt"
       spacingx="0.35277778"
       spacingy="0.35277778"
       originx="35.918459"
       originy="-8.8194483" />
  </sodipodi:namedview>
  <metadata
     id="metadata76">
    <rdf:RDF>
      <cc:Work
         rdf:about="">
        <dc:format>image/svg+xml</dc:format>
        <dc:type
           rdf:resource="http://purl.org/dc/dcmitype/StillImage" />
        <dc:title />
        <cc:license
           rdf:resource="http://artlibre.org/licence/lal" />
      </cc:Work>
      <cc:License
         rdf:about="http://artlibre.org/licence/lal">
        <cc:permits
           rdf:resource="http://creativecommons.org/ns#Reproduction" />
        <cc:permits
           rdf:resource="http://creativecommons.org/ns#Distribution" />
        <cc:permits
           rdf:resource="http://creativecommons.org/ns#DerivativeWorks" />
        <cc:requires
           rdf:resource="http://creativecommons.org/ns#ShareAlike" />
        <cc:requires
           rdf:resource="http://creativecommons.org/ns#Notice" />
        <cc:requires
           rdf:resource="http://creativecommons.org/ns#Attribution" />
      </cc:License>
    </rdf:RDF>
  </metadata>
  <g
     inkscape:label="Layer 1"
     inkscape:groupmode="layer"
     id="layer1"
     transform="translate(35.918455,-247.8015)">
    <rect
       style="fill:#111119;fill-opacity:1;stroke:none;stroke-width:0.26458332;stroke-opacity:1"
       id="rect4600"
       width="58.470116"
       height="55.584579"
       x="-2.3550911"
       y="242.7713" />
    <g
       id="g945"
       transform="translate(67.027779,19.402784)">
      <rect
         y="265.25"
         x="-10.583333"
         height="3.5277777"
         width="7.0555553"
         id="rect95"
         style="fill:#111119;fill-opacity:1;stroke-width:0.26458332" />
      <rect
         y="265.25"
         x="-3.5277774"
         height="3.5277777"
         width="7.0555553"
         id="rect902"
         style="fill:#576c4e;fill-opacity:1;stroke-width:0.20000619" />
      <rect
         y="265.25"
         x="-17.638889"
         height="3.5277777"
         width="7.0555553"
         id="rect95-3"
         style="fill:#ffffff;fill-opacity:1;stroke-width:0.26458332" />
      <rect
         y="265.25"
         x="3.5277781"
         height="3.5277777"
         width="7.0555553"
         id="rect95-6"
         style="fill:#788998;fill-opacity:1;stroke-width:0.26458332" />
      <rect
         y="265.25"
         x="10.583333"
         height="3.5277777"
         width="7.0555553"
         id="rect902-7"
         style="fill:#cf4332;fill-opacity:1;stroke-width:0.20000619" />
    </g>
    <g
       id="g4576"
       style="fill:#cf4332;fill-opacity:1">
      <path
         d="m 6.5117478,261.47798 c 0,0.22225 0.22225,0.45508 0.4550834,0.67733 0.4339166,0 1.1218333,0 1.5769166,-0.22225 h 0.4339167 c 0.9101666,0 1.3546665,-0.45508 1.8097495,-0.66675 0.677334,-0.91016 1.566334,-2.032 1.566334,-3.38666 0.232833,-0.89959 0.09525,-1.7145 0,-2.45534 -0.116417,-0.87841 -0.359834,-1.40758 -0.66675,-2.04258 -0.211667,-0.4445 -0.4445,-0.91017 -0.899584,-1.12183 -0.232833,-0.22225 -0.66675,-0.45509 -0.8995829,-0.67734 -0.09525,-0.0423 -0.2010833,0.0106 -0.2010833,0.0106 -0.5503333,-0.0847 -0.7090833,-0.0106 -1.143,-0.0106 -0.4550833,0 -0.9101666,0 -1.3546666,0.22225 l -0.22225,0.23284 c -0.2328334,0.22225 -0.4550834,0.22225 -0.4550834,0.43391 0,0.68792 0.4550834,0.23284 0.889,0.23284 v 0.91016 c 0.2328334,0.66675 0.2328334,1.57692 0.2328334,2.46592 0,0.67733 0.2222499,1.57692 0.2222499,2.69875 v 2.48708 c -0.2222499,0 -0.2222499,0.21167 -0.4550833,0.21167 z m 2.4659167,-9.21808 c 0.4550833,0 0.6879166,0 0.9101666,0.21166 0.6667499,0.68792 0.6667499,1.80975 0.8995829,2.93159 v 0.67733 c 0.22225,0.67733 0,1.34408 0,1.79917 0,0.89958 0,1.80975 -0.455083,2.4765 0,0 0,0.22225 -0.211667,0.22225 0,0 -0.2328329,0 -0.2328329,0.23283 -0.22225,0 -0.4550833,0.22225 -0.6773333,0.22225 -0.2328333,-0.22225 0,-0.45508 0,-0.91017 0,-0.43391 -0.2328333,-0.889 -0.2328333,-1.34408 v -2.24367 c 0,-0.67733 -0.084667,-1.0795 -0.084667,-1.57691 0,-0.45509 -0.052917,-0.91017 -0.052917,-1.57692 0,-0.30692 -0.074083,-0.91017 0.137584,-1.12183 z"
         style="font-style:normal;font-variant:normal;font-weight:normal;font-stretch:normal;font-size:medium;line-height:1;font-family:Sunday;-inkscape-font-specification:Sunday;letter-spacing:0px;word-spacing:0px;fill:#cf4332;fill-opacity:1;stroke:none;stroke-width:0.26458332"
         id="path4523"
         inkscape:connector-curvature="0" />
      <path
         d="m 18.253792,261.12873 c 0.433917,-0.78317 0.740833,-1.60867 0.963083,-2.67758 0.211667,-0.86784 0.179917,-1.651 0.179917,-2.29659 0,-0.48683 0,-0.70908 -0.04233,-1.143 -0.105834,-1.11125 -0.60325,-2.0955 -1.259417,-2.52941 -0.433917,-0.65617 -0.867833,-0.86784 -1.7145,-0.86784 -1.524,-0.22225 -1.957917,1.0795 -2.6035,1.93675 -0.22225,0.21167 -0.211667,0.66675 -0.3175,1.12184 0,0.22225 -0.0635,0.52916 -0.116417,0.8255 -0.09525,0.58208 0,0.86783 0,1.30175 0,0.86783 0,1.73566 0.211667,2.58233 0.22225,0.65617 0.455083,1.143 0.656167,1.524 0.518583,0.98425 2.042583,1.76742 3.450166,0.86783 0.1905,-0.11641 0.4445,-0.381 0.592667,-0.64558 z m -0.941917,-0.14817 c -0.15875,0.40217 -1.227666,0.59267 -1.55575,0.26459 -0.148166,-0.14817 -0.03175,-0.33867 -0.243416,-0.33867 -0.22225,-0.22225 -0.22225,-0.65617 -0.433917,-1.09008 -0.22225,-1.28059 -0.433917,-3.01625 -0.22225,-4.75192 0,-0.43392 0,-0.86783 0.22225,-1.30175 0.211667,-0.64558 0.433917,-1.06892 0.867833,-1.50283 0.433917,0 0.465667,0.0423 0.878417,0.0423 0.433917,0.21167 0.624417,0.81492 0.836083,1.24883 0.22225,0.43392 0.22225,0.86784 0.433917,1.30175 0,0.43392 0.07408,0.84667 0.07408,1.28059 0,0.42333 -0.07408,0.66675 -0.07408,1.10066 0,0.64559 0,1.30175 -0.211667,1.94734 -0.116416,0.51858 -0.402166,1.37583 -0.5715,1.79916 z"
         style="font-style:normal;font-variant:normal;font-weight:normal;font-stretch:normal;font-size:medium;line-height:1;font-family:Sunday;-inkscape-font-specification:Sunday;letter-spacing:0px;word-spacing:0px;fill:#cf4332;fill-opacity:1;stroke:none;stroke-width:0.26458332"
         id="path4525"
         inkscape:connector-curvature="0" />
      <path
         d="m 21.929185,260.61015 c -0.211667,-0.86784 -0.201083,-1.83092 -0.201083,-2.91042 0,-0.49742 -0.01058,-1.18533 -0.01058,-2.04258 0,-0.65617 0,-1.29117 0,-1.94734 v -1.28058 c 0.211667,-0.23283 0.402167,-0.53975 0.254,-0.68792 -0.296333,-0.29633 -0.899583,-0.21166 -1.322916,-0.17991 -0.41275,0.0318 -0.656167,0 -0.867833,0.21166 0,0.42334 0.613833,0.32809 0.656166,0.65617 0.0635,0.47625 0,0.84667 0,1.28058 v 5.38692 c 0.211667,0.64558 0.0635,1.34408 0.423334,1.93675 0.306916,0.48683 0.719666,0.99483 1.428749,1.10067 0.423334,0 0.296334,-0.0212 0.508,-0.0212 0.867834,0 1.439334,-0.762 1.725084,-1.29117 0.518583,-0.96308 0.635,-1.93675 0.635,-3.22791 0,0 0,-0.23284 0,-0.23284 v -2.14841 c 0.211666,-1.0795 -0.148167,-2.48709 0.455083,-2.97392 0.243417,-0.1905 0.127,-0.64558 -0.66675,-0.67733 -0.47625,-0.0212 -1.11125,0.0529 -1.5875,0.0529 -0.232833,0 0.09525,0.37042 0.09525,0.58209 0,0 0.211667,0 0.423333,0.23283 0.211667,0.42333 0,1.28058 0,2.14842 v 3.22791 c 0,0.86784 0.03175,2.48709 -0.751416,3.05859 -0.486834,0.34925 -0.98425,-0.0423 -1.195917,-0.254 z"
         style="font-style:normal;font-variant:normal;font-weight:normal;font-stretch:normal;font-size:medium;line-height:1;font-family:Sunday;-inkscape-font-specification:Sunday;letter-spacing:0px;word-spacing:0px;fill:#cf4332;fill-opacity:1;stroke:none;stroke-width:0.26458332"
         id="path4527"
         inkscape:connector-curvature="0" />
      <path
         d="m 31.154214,252.21756 c -0.433917,-0.45508 -0.878417,-0.45508 -1.545167,-0.66675 -1.090083,0 -1.9685,0.66675 -2.423583,1.31234 -0.254,0.24341 -0.211667,0.4445 -0.423334,0.66675 -0.34925,1.03716 -0.455083,2.20133 -0.66675,3.302 0,1.31233 0.4445,2.63525 0.66675,3.72533 0.423334,0.66675 0.878417,0.89958 1.322917,1.32292 1.090083,0.22225 3.069167,0.66675 3.513667,-0.42334 v -1.54516 c -0.211667,0 -0.211667,-0.23284 -0.66675,-0.23284 -0.211667,0.4445 0,1.11125 -0.211667,1.54517 -0.4445,0.23283 -0.878417,0.4445 -1.322917,0.23283 -0.878416,-0.45508 -1.312333,-1.98966 -1.545166,-3.31258 v -1.31233 c 0,-1.10067 0,-1.76742 0.232833,-2.64584 0.211667,-0.21166 0.211667,-0.4445 0.211667,-0.4445 0.22225,-0.21166 0.433916,-0.87841 0.66675,-1.10066 0.433916,-0.21167 1.090083,-0.21167 1.756833,0 0.211667,0.22225 0,1.10066 0.433917,1.10066 0.232833,0 0.232833,-0.64558 0.232833,-1.10066 0,-0.21167 -0.232833,-0.21167 -0.232833,-0.42334 z"
         style="font-style:normal;font-variant:normal;font-weight:normal;font-stretch:normal;font-size:medium;line-height:1;font-family:Sunday;-inkscape-font-specification:Sunday;letter-spacing:0px;word-spacing:0px;fill:#cf4332;fill-opacity:1;stroke:none;stroke-width:0.26458332"
         id="path4529"
         inkscape:connector-curvature="0" />
      <path
         d="m 36.548406,253.28648 c 0.867834,0 0.433917,-0.85725 0.433917,-1.29117 0,-0.22225 -0.22225,-0.43391 -0.22225,-0.43391 h -2.159 c -0.867833,0.21166 -1.725083,0.21166 -2.592917,0.43391 0,0 0,0.43392 0,0.43392 h 0.867834 c 0,0.635 0,1.29117 0,1.93675 v 0.85725 c 0,0.86783 0,1.51342 0,2.16958 v 0.43392 c 0,1.31233 0.22225,2.37067 0,3.66183 -0.211667,0 -0.645584,0 -0.867834,0 v 0.43392 c 1.291167,0.22225 2.38125,0.22225 3.450167,0.22225 h 1.090083 c 0.211667,-0.22225 0.433917,-0.43392 0.433917,-0.65617 0,-0.43391 0,-1.06891 -0.433917,-1.06891 -0.433916,0.21166 0,0.85725 -0.433916,1.06891 -0.656167,0 -1.0795,0 -1.725084,-0.21166 0,-0.42334 -0.0635,-1.25942 -0.0635,-1.91559 0,-0.635 -0.15875,-1.53458 0.0635,-2.19075 0.211667,0 0.867834,0 1.068917,0 v 0.22225 c 0,0.21167 0.433917,0.43392 0.433917,0.43392 0.433916,0 0,-1.31233 0.22225,-1.73567 -0.22225,-0.21166 -0.22225,-0.21166 -0.433917,-0.21166 -0.22225,0 -0.22225,0.43391 -0.22225,0.635 -0.423333,0 -1.068917,0 -1.291167,-0.20109 0.22225,-0.43391 0,-0.86783 0,-1.524 0,-0.42333 0.03175,-0.74083 0.03175,-1.34408 0,-0.48683 -0.03175,-0.81492 0.1905,-1.016 0.433917,-0.22225 1.068917,-0.22225 1.502834,-0.22225 0.22225,0.10583 0.22225,0.10583 0.433916,0.22225 0.22225,0.20108 0,0.635 0.22225,0.85725 z"
         style="font-style:normal;font-variant:normal;font-weight:normal;font-stretch:normal;font-size:medium;line-height:1;font-family:Sunday;-inkscape-font-specification:Sunday;letter-spacing:0px;word-spacing:0px;fill:#cf4332;fill-opacity:1;stroke:none;stroke-width:0.26458332"
         id="path4531"
         inkscape:connector-curvature="0" />
      <path
         d="m 39.623195,260.61015 c -0.211666,-0.86784 -0.201083,-1.83092 -0.201083,-2.91042 0,-0.49742 -0.01058,-1.18533 -0.01058,-2.04258 0,-0.65617 0,-1.29117 0,-1.94734 v -1.28058 c 0.211666,-0.23283 0.402166,-0.53975 0.254,-0.68792 -0.296334,-0.29633 -0.899584,-0.21166 -1.322917,-0.17991 -0.41275,0.0318 -0.656167,0 -0.867833,0.21166 0,0.42334 0.613833,0.32809 0.656166,0.65617 0.0635,0.47625 0,0.84667 0,1.28058 v 5.38692 c 0.211667,0.64558 0.0635,1.34408 0.423334,1.93675 0.306916,0.48683 0.719666,0.99483 1.42875,1.10067 0.423333,0 0.296333,-0.0212 0.508,-0.0212 0.867833,0 1.439333,-0.762 1.725083,-1.29117 0.518583,-0.96308 0.635,-1.93675 0.635,-3.22791 0,0 0,-0.23284 0,-0.23284 v -2.14841 c 0.211667,-1.0795 -0.148167,-2.48709 0.455083,-2.97392 0.243417,-0.1905 0.127,-0.64558 -0.66675,-0.67733 -0.47625,-0.0212 -1.11125,0.0529 -1.5875,0.0529 -0.232833,0 0.09525,0.37042 0.09525,0.58209 0,0 0.211667,0 0.423334,0.23283 0.211666,0.42333 0,1.28058 0,2.14842 v 3.22791 c 0,0.86784 0.03175,2.48709 -0.751417,3.05859 -0.486833,0.34925 -0.98425,-0.0423 -1.195917,-0.254 z"
         style="font-style:normal;font-variant:normal;font-weight:normal;font-stretch:normal;font-size:medium;line-height:1;font-family:Sunday;-inkscape-font-specification:Sunday;letter-spacing:0px;word-spacing:0px;fill:#cf4332;fill-opacity:1;stroke:none;stroke-width:0.26458332"
         id="path4533"
         inkscape:connector-curvature="0" />
      <path
         d="m 48.276724,256.2604 c 0,-0.23284 -0.232833,-0.23284 -0.232833,-0.45509 l 0.232833,-0.23283 c 0.211667,-0.21167 0.53975,-0.60325 0.66675,-0.91017 0.254,-0.61383 0.105833,-1.37583 0,-1.80975 -0.3175,-1.31233 -2.264833,-1.36525 -3.640667,-1.13241 -0.211666,0 -0.28575,0.127 -0.508,0.127 -0.687916,0 -0.98425,0.0106 -0.98425,0.67733 0,0.23283 0.381,0.32808 0.8255,0.32808 0,1.143 0.137584,1.85209 0.07408,2.81517 -0.02117,0.3175 -0.07408,0.35983 -0.07408,0.59267 0.232834,0.4445 0,0.91016 0,1.35466 v 3.86292 c -0.232833,0 -0.4445,0 -0.677333,0.21167 0.232833,0.46566 0.4445,0.46566 0.910167,0.46566 0.433916,-0.23283 1.397,-0.0635 1.8415,-0.0635 0.22225,0 0.1905,-0.16933 0.1905,-0.40216 0,-0.21167 -0.455084,-0.21167 -0.455084,-0.43392 -0.211666,-0.46567 -0.211666,-0.91017 -0.211666,-1.37583 0,-0.89959 -0.232834,-2.26484 0,-3.40784 0,-0.21166 0.211666,-0.21166 0.4445,-0.21166 0.22225,0.21166 0.455083,0.21166 0.455083,0.4445 0.232833,0.23283 0.275167,0.35983 0.4445,0.60325 0.529167,0.77258 0.306917,1.73566 0.4445,2.59291 0.232833,1.37584 -0.41275,1.72509 0.05292,2.16959 0.645583,0.0741 1.576916,0.23283 1.576916,-0.4445 0,-0.22225 -0.211666,-0.22225 -0.4445,-0.22225 -0.232833,-1.59809 -0.03175,-4.0005 -0.931333,-5.1435 z m -2.25425,-3.84175 c 0.211667,0 0.878417,-0.0212 1.11125,-0.0212 0.232833,0.22225 0.4445,0.37042 0.4445,0.68792 0,0.4445 0.08467,0.40216 0,0.91016 -0.05292,0.30692 -0.211667,0.66675 -0.211667,0.89959 -0.232833,0.23283 -1.248833,0.62441 -1.259416,0.3175 -0.05292,-1.10067 -0.08467,-1.88384 -0.08467,-2.794 z"
         style="font-style:normal;font-variant:normal;font-weight:normal;font-stretch:normal;font-size:medium;line-height:1;font-family:Sunday;-inkscape-font-specification:Sunday;letter-spacing:0px;word-spacing:0px;fill:#cf4332;fill-opacity:1;stroke:none;stroke-width:0.26458332"
         id="path4535"
         inkscape:connector-curvature="0" />
    </g>
    <g
       id="g4598"
       style="fill:#cf4332;fill-opacity:1">
      <path
         d="m 9.9089978,265.22448 c -0.2328333,0 -0.4445,-0.23283 -0.4445,-0.23283 -0.5185833,-0.10584 -0.6773333,-0.23284 -1.143,-0.23284 -0.4445,0 -0.66675,0.23284 -0.8995833,0.23284 -0.4445,0.4445 -0.889,1.11125 -0.6773333,1.80975 0,0.4445 0.47625,0.85725 0.8255,1.21708 0.3492499,0.35983 0.5397499,0.34925 0.7514166,0.5715 0.22225,0.22225 0.4550833,0.45508 0.9101667,0.67733 0.4445,0.23284 0.6773333,0.46567 0.9101665,0.91017 0.433917,1.80975 0,3.59833 -1.3546665,4.27567 -0.2328334,0 -0.2328334,0.23283 -0.4656667,0.23283 -0.66675,-0.23283 -0.8995833,-1.5875 -0.4445,-2.02142 0.2328333,-0.23283 0.4445,-0.23283 0.6773333,-0.23283 0.2328334,-0.4445 0,-0.91017 -0.4445,-0.91017 -0.6561666,0.27517 -1.1324166,0.23284 -1.8097499,0.46567 0,0.21167 0,0.4445 0.2328333,0.67733 0.2116667,0 0.2116667,-0.23283 0.4445,-0.23283 -0.2328333,0.89958 0,1.57692 0.2328333,2.02142 0.2116667,0.23283 0.8995833,0.89958 1.3440833,0.89958 h 0.9101667 c 0.8995832,-0.22225 1.4499162,-0.60325 1.7885832,-1.34408 0.28575,-0.62442 0.423333,-1.12184 0.423333,-2.01084 0,-0.46566 -0.105833,-1.02658 -0.338666,-1.48166 -0.211667,-0.4445 -0.328084,-0.62442 -0.433917,-0.80434 -0.613833,-1.0795 -1.9049999,-1.34408 -2.3494999,-2.23308 -0.2328333,-0.46567 -0.2328333,-1.5875 0,-2.04258 0.4445,0 0.9101667,0.23283 1.1218334,0.45508 0,0.4445 -0.2116667,0.91017 0,1.12183 0.4656665,0.23284 0.6879165,-0.4445 0.8995835,-0.91016 0,-0.21167 0.232833,-0.66675 0,-0.87842 0,-0.23283 -0.211667,-0.23283 -0.433917,-0.23283 -0.2328332,0 -0.2328332,0.23283 -0.2328332,0.23283 z"
         style="font-style:normal;font-variant:normal;font-weight:normal;font-stretch:normal;font-size:medium;line-height:1;font-family:Sunday;-inkscape-font-specification:Sunday;letter-spacing:0px;word-spacing:0px;fill:#cf4332;fill-opacity:1;stroke:none;stroke-width:0.26458332"
         id="path4537"
         inkscape:connector-curvature="0" />
      <path
         d="m 14.033026,273.83931 c -0.211666,-0.86783 -0.201083,-1.83091 -0.201083,-2.91041 0,-0.49742 -0.01058,-1.18534 -0.01058,-2.04259 0,-0.65616 0,-1.29116 0,-1.94733 v -1.28058 c 0.211666,-0.23284 0.402166,-0.53975 0.254,-0.68792 -0.296334,-0.29633 -0.899584,-0.21167 -1.322917,-0.17992 -0.41275,0.0317 -0.656167,0 -0.867833,0.21167 0,0.42333 0.613833,0.32808 0.656166,0.65617 0.0635,0.47625 0,0.84666 0,1.28058 v 5.38692 c 0.211667,0.64558 0.0635,1.34408 0.423334,1.93675 0.306916,0.48683 0.719666,0.99483 1.42875,1.10066 0.423333,0 0.296333,-0.0212 0.508,-0.0212 0.867833,0 1.439333,-0.762 1.725083,-1.29117 0.518583,-0.96308 0.635,-1.93675 0.635,-3.22792 0,0 0,-0.23283 0,-0.23283 v -2.14842 c 0.211667,-1.0795 -0.148167,-2.48708 0.455083,-2.97391 0.243417,-0.1905 0.127,-0.64559 -0.66675,-0.67734 -0.47625,-0.0212 -1.11125,0.0529 -1.5875,0.0529 -0.232833,0 0.09525,0.37042 0.09525,0.58208 0,0 0.211667,0 0.423334,0.23284 0.211666,0.42333 0,1.28058 0,2.14841 v 3.22792 c 0,0.86783 0.03175,2.48708 -0.751417,3.05858 -0.486833,0.34925 -0.98425,-0.0423 -1.195917,-0.254 z"
         style="font-style:normal;font-variant:normal;font-weight:normal;font-stretch:normal;font-size:medium;line-height:1;font-family:Sunday;-inkscape-font-specification:Sunday;letter-spacing:0px;word-spacing:0px;fill:#cf4332;fill-opacity:1;stroke:none;stroke-width:0.26458332"
         id="path4539"
         inkscape:connector-curvature="0" />
      <path
         d="m 22.686555,269.48956 c 0,-0.23283 -0.232833,-0.23283 -0.232833,-0.45508 l 0.232833,-0.23283 c 0.211667,-0.21167 0.53975,-0.60325 0.66675,-0.91017 0.254,-0.61383 0.105833,-1.37583 0,-1.80975 -0.3175,-1.31233 -2.264833,-1.36525 -3.640667,-1.13242 -0.211666,0 -0.28575,0.127 -0.508,0.127 -0.687916,0 -0.98425,0.0106 -0.98425,0.67734 0,0.23283 0.381,0.32808 0.8255,0.32808 0,1.143 0.137584,1.85208 0.07408,2.81517 -0.02117,0.3175 -0.07408,0.35983 -0.07408,0.59266 0.232834,0.4445 0,0.91017 0,1.35467 v 3.86292 c -0.232833,0 -0.4445,0 -0.677333,0.21166 0.232833,0.46567 0.4445,0.46567 0.910167,0.46567 0.433916,-0.23283 1.397,-0.0635 1.8415,-0.0635 0.22225,0 0.1905,-0.16933 0.1905,-0.40217 0,-0.21166 -0.455084,-0.21166 -0.455084,-0.43391 -0.211666,-0.46567 -0.211666,-0.91017 -0.211666,-1.37584 0,-0.89958 -0.232834,-2.26483 0,-3.40783 0,-0.21167 0.211666,-0.21167 0.4445,-0.21167 0.22225,0.21167 0.455083,0.21167 0.455083,0.4445 0.232833,0.23284 0.275167,0.35984 0.4445,0.60325 0.529167,0.77259 0.306917,1.73567 0.4445,2.59292 0.232833,1.37583 -0.41275,1.72508 0.05292,2.16958 0.645583,0.0741 1.576916,0.23284 1.576916,-0.4445 0,-0.22225 -0.211666,-0.22225 -0.4445,-0.22225 -0.232833,-1.59808 -0.03175,-4.0005 -0.931333,-5.1435 z m -2.25425,-3.84175 c 0.211667,0 0.878417,-0.0212 1.11125,-0.0212 0.232833,0.22225 0.4445,0.37041 0.4445,0.68791 0,0.4445 0.08467,0.40217 0,0.91017 -0.05292,0.30692 -0.211667,0.66675 -0.211667,0.89958 -0.232833,0.23284 -1.248833,0.62442 -1.259416,0.3175 -0.05292,-1.10066 -0.08467,-1.88383 -0.08467,-2.794 z"
         style="font-style:normal;font-variant:normal;font-weight:normal;font-stretch:normal;font-size:medium;line-height:1;font-family:Sunday;-inkscape-font-specification:Sunday;letter-spacing:0px;word-spacing:0px;fill:#cf4332;fill-opacity:1;stroke:none;stroke-width:0.26458332"
         id="path4541"
         inkscape:connector-curvature="0" />
    </g>
    <g
       id="g4593"
       style="fill:#788998;fill-opacity:1"
       transform="translate(-17.448683,12.788194)">
      <path
         d="m 32.642826,265.10806 c 0,-0.254 0.04233,-0.27516 -0.169334,-0.29633 -0.687916,-0.0847 -1.5875,0.0847 -2.233083,0.0847 0,0 -0.232833,0 -0.232833,0 v 0.4445 c 0.232833,0.21166 0.4445,0.21166 0.4445,0.42333 0.22225,0.66675 0.22225,1.53458 0.22225,2.21192 0,0.64558 0,1.30175 0,1.95791 v 0.23284 c 0,1.09008 0,2.62466 -0.22225,3.72533 0,0.4445 0,0.65617 -0.211667,0.87842 -0.232833,0 -0.4445,0 -0.4445,0.21166 0,0.23284 0.211667,0.23284 0.4445,0.4445 1.090083,-0.21166 2.402417,0 3.725333,-0.21166 0.211667,-0.23284 0,-0.66675 0,-0.87842 0,-0.65617 0.211667,-1.54517 -0.211666,-1.97908 0,0 -0.232834,-0.21167 -0.4445,0 v 0.87841 c 0,0.4445 0,0.86784 0,1.31234 h -0.232834 c -0.264583,0.0106 -0.433916,0 -0.433916,0 -0.211667,0 -0.201084,0.0106 -0.423334,0 -0.243416,-0.0106 -0.232833,0 -0.232833,-0.21167 -0.211667,-3.07975 0.232833,-5.715 0.232833,-8.5725 0,-0.21167 0.211667,-0.21167 0.423334,-0.65617 z"
         style="font-style:normal;font-variant:normal;font-weight:normal;font-stretch:normal;font-size:medium;line-height:1;font-family:Sunday;-inkscape-font-specification:Sunday;letter-spacing:0px;word-spacing:0px;fill:#788998;fill-opacity:1;stroke:none;stroke-width:0.26458332"
         id="path4543"
         inkscape:connector-curvature="0" />
      <path
         d="m 35.144294,267.02365 c 0.28575,-0.28575 0.328084,-0.85725 0.433917,-1.13242 -0.148167,-0.41275 0,-0.5715 -0.148167,-0.84667 -0.137583,-0.13758 -0.423333,-0.28575 -0.5715,-0.13758 -0.28575,0 -0.28575,0.28575 -0.41275,0.41275 0,0.5715 0.28575,0.84667 0.28575,1.41817 0.127,0.127 0.127,0.41275 0.41275,0.28575 z"
         style="font-style:normal;font-variant:normal;font-weight:normal;font-stretch:normal;font-size:medium;line-height:1;font-family:Sunday;-inkscape-font-specification:Sunday;letter-spacing:0px;word-spacing:0px;fill:#788998;fill-opacity:1;stroke:none;stroke-width:0.26458332"
         id="path4545"
         inkscape:connector-curvature="0" />
      <path
         d="m 40.496484,266.51565 c 0.867834,0 0.433917,-0.85725 0.433917,-1.29117 0,-0.22225 -0.22225,-0.43392 -0.22225,-0.43392 h -2.159 c -0.867833,0.21167 -1.725083,0.21167 -2.592917,0.43392 0,0 0,0.43392 0,0.43392 h 0.867834 c 0,0.635 0,1.29116 0,1.93675 v 0.85725 c 0,0.86783 0,1.51341 0,2.16958 v 0.43392 c 0,1.31233 0.22225,2.37066 0,3.66183 -0.211667,0 -0.645584,0 -0.867834,0 v 0.43392 c 1.291167,0.22225 2.38125,0.22225 3.450167,0.22225 h 1.090083 c 0.211667,-0.22225 0.433917,-0.43392 0.433917,-0.65617 0,-0.43392 0,-1.06892 -0.433917,-1.06892 -0.433916,0.21167 0,0.85725 -0.433916,1.06892 -0.656167,0 -1.0795,0 -1.725084,-0.21167 0,-0.42333 -0.0635,-1.25941 -0.0635,-1.91558 0,-0.635 -0.15875,-1.53458 0.0635,-2.19075 0.211667,0 0.867834,0 1.068917,0 v 0.22225 c 0,0.21167 0.433917,0.43392 0.433917,0.43392 0.433916,0 0,-1.31234 0.22225,-1.73567 -0.22225,-0.21167 -0.22225,-0.21167 -0.433917,-0.21167 -0.22225,0 -0.22225,0.43392 -0.22225,0.635 -0.423333,0 -1.068917,0 -1.291167,-0.20108 0.22225,-0.43392 0,-0.86783 0,-1.524 0,-0.42333 0.03175,-0.74083 0.03175,-1.34408 0,-0.48684 -0.03175,-0.81492 0.1905,-1.016 0.433917,-0.22225 1.068917,-0.22225 1.502834,-0.22225 0.22225,0.10583 0.22225,0.10583 0.433916,0.22225 0.22225,0.20108 0,0.635 0.22225,0.85725 z"
         style="font-style:normal;font-variant:normal;font-weight:normal;font-stretch:normal;font-size:medium;line-height:1;font-family:Sunday;-inkscape-font-specification:Sunday;letter-spacing:0px;word-spacing:0px;fill:#788998;fill-opacity:1;stroke:none;stroke-width:0.26458332"
         id="path4547"
         inkscape:connector-curvature="0" />
      <path
         d="m 45.539773,274.50606 c -0.232833,0 -0.592666,0.58209 -0.592666,0.81492 0,0.20108 0.359833,0.10583 0.592666,0.0847 0.455084,0 0.836084,-0.0635 1.280584,-0.0635 l 0.275166,0.0635 c 0.465667,-0.22225 0,-0.46567 0,-0.66675 v -1.35467 c -0.201083,-1.98967 -0.306916,-3.96875 -0.518583,-5.72558 -0.04233,-0.35984 -0.127,-0.77259 -0.338667,-1.19592 0,-0.45508 -0.455083,-1.3335 -0.931333,-1.56633 -0.423333,-0.24342 -0.889,0.23283 -0.889,0.23283 -0.4445,0.65617 -0.867833,1.3335 -1.100667,2.23308 -0.243416,0.45509 -0.465666,1.11125 -0.465666,1.778 -0.22225,1.57692 -0.4445,3.56659 -0.656167,4.92125 0,0.23284 0,0.45509 -0.232833,0.45509 -0.201084,0 -0.455084,0.20108 -0.66675,0.43391 l 0.465666,0.4445 c 0.645584,-0.24341 1.280584,0.23284 1.957917,-0.23283 0,0 0.03175,-0.21167 0.03175,-0.4445 -0.201083,-0.20108 -0.433917,0 -0.677333,-0.20108 0,-1.15359 0,-2.23309 0.243416,-3.12209 0,-0.47625 0,-0.92075 0.232834,-1.143 0.656166,0 1.3335,0.22225 1.756833,0.22225 0.232833,1.12184 0.232833,2.67759 0.232833,4.03225 z m -1.121833,-8.27616 0.232833,-0.22225 c 0.232834,0 0.232834,0.22225 0.232834,0.22225 0.232833,0.65616 0.423333,1.5875 0.423333,2.24366 v 1.3335 c -0.423333,0 -1.100667,0 -1.756833,-0.20108 0,-0.254 0.201083,-0.93133 0.201083,-1.13242 0.22225,-0.889 0.455083,-1.5875 0.66675,-2.24366 z"
         style="font-style:normal;font-variant:normal;font-weight:normal;font-stretch:normal;font-size:medium;line-height:1;font-family:Sunday;-inkscape-font-specification:Sunday;letter-spacing:0px;word-spacing:0px;fill:#788998;fill-opacity:1;stroke:none;stroke-width:0.26458332"
         id="path4549"
         inkscape:connector-curvature="0" />
      <path
         d="m 49.875799,273.83931 c -0.211666,-0.86783 -0.201083,-1.83091 -0.201083,-2.91041 0,-0.49742 -0.01058,-1.18534 -0.01058,-2.04259 0,-0.65616 0,-1.29116 0,-1.94733 v -1.28058 c 0.211666,-0.23284 0.402166,-0.53975 0.254,-0.68792 -0.296334,-0.29633 -0.899584,-0.21167 -1.322917,-0.17992 -0.41275,0.0317 -0.656167,0 -0.867833,0.21167 0,0.42333 0.613833,0.32808 0.656166,0.65617 0.0635,0.47625 0,0.84666 0,1.28058 v 5.38692 c 0.211667,0.64558 0.0635,1.34408 0.423334,1.93675 0.306916,0.48683 0.719666,0.99483 1.42875,1.10066 0.423333,0 0.296333,-0.0212 0.508,-0.0212 0.867833,0 1.439333,-0.762 1.725083,-1.29117 0.518583,-0.96308 0.635,-1.93675 0.635,-3.22792 0,0 0,-0.23283 0,-0.23283 v -2.14842 c 0.211667,-1.0795 -0.148167,-2.48708 0.455083,-2.97391 0.243417,-0.1905 0.127,-0.64559 -0.66675,-0.67734 -0.47625,-0.0212 -1.11125,0.0529 -1.5875,0.0529 -0.232833,0 0.09525,0.37042 0.09525,0.58208 0,0 0.211667,0 0.423334,0.23284 0.211666,0.42333 0,1.28058 0,2.14841 v 3.22792 c 0,0.86783 0.03175,2.48708 -0.751417,3.05858 -0.486833,0.34925 -0.98425,-0.0423 -1.195917,-0.254 z"
         style="font-style:normal;font-variant:normal;font-weight:normal;font-stretch:normal;font-size:medium;line-height:1;font-family:Sunday;-inkscape-font-specification:Sunday;letter-spacing:0px;word-spacing:0px;fill:#788998;fill-opacity:1;stroke:none;stroke-width:0.26458332"
         id="path4551"
         inkscape:connector-curvature="0" />
    </g>
    <circle
       style="fill:#111119;fill-opacity:1;stroke:none;stroke-width:0.01234182;stroke-opacity:1"
       id="path4602"
       cx="63.297321"
       cy="273.25287"
       r="0.5" />
  </g>
</svg>
